<svg xmlns="http://www.w3.org/2000/svg" width="410" height="404" viewBox="0 0 410 404" fill="none">
  <defs>
    <linearGradient id="paint0_linear" x1="6.00017" y1="32.9999" x2="235" y2="344" gradientUnits="userSpaceOnUse">
      <stop stop-color="#41D1FF"/>
      <stop offset="1" stop-color="#BD34FE"/>
    </linearGradient>
    <linearGradient id="paint1_linear" x1="194.651" y1="8.81818" x2="236.076" y2="292.989" gradientUnits="userSpaceOnUse">
      <stop stop-color="#FFEA83"/>
      <stop offset="0.0833333" stop-color="#FFDD35"/>
      <stop offset="1" stop-color="#FFA800"/>
    </linearGradient>
  </defs>
  <path d="M399.641 59.5246L215.643 388.545C211.844 395.338 202.084 395.378 198.228 388.618L10.5817 59.5563C6.38087 52.1896 12.6802 43.2665 21.0282 44.7586L205.223 77.6824C206.398 77.893 207.601 77.8904 208.776 77.6747L389.119 44.8058C397.439 43.2894 403.768 52.1434 399.632 59.5306L399.641 59.5246Z" fill="url(#paint0_linear)"/>
  <path d="M292.965 1.5744L156.801 28.2554C155.563 28.4971 154.517 29.2497 153.894 30.3485L72.6795 174.33C71.3296 176.753 72.9623 179.729 75.7324 179.729C76.015 179.729 76.2974 179.703 76.5749 179.65L112.559 172.572C115.829 171.947 118.854 174.162 119.323 177.46L134.91 287.34C135.348 290.39 138.843 291.787 141.273 289.871C142.314 289.055 143.023 287.86 143.249 286.542L170.727 123.236C171.183 120.548 173.389 118.507 176.103 118.214L231.045 112.181C234.969 111.748 237.445 107.779 236.009 104.108L206.752 25.567C205.596 22.4485 207.473 19.0312 210.739 18.3443L293.922 1.03594C297.19 0.34882 300.069 3.28421 299.258 6.51446L292.218 33.8967C291.438 36.9857 293.363 40.1478 296.498 40.8292L329.391 47.7729C332.828 48.5152 336.024 45.858 335.681 42.3586L332.059 5.55733C331.627 1.18154 327.547 -1.68718 323.274 -0.873866L292.965 1.5744Z" fill="url(#paint1_linear)"/>
</svg>


